<?xml version="1.0" encoding="UTF-8" standalone="no"?>
<!-- Copyright 2000-2022 JetBrains s.r.o. and contributors. Use of this source code is governed by the Apache 2.0 license. -->

<svg
   width="16"
   height="16"
   viewBox="0 0 16 16"
   fill="none"
   version="1.1"
   id="svg1"
   sodipodi:docname="class.svg"
   xmlns:inkscape="http://www.inkscape.org/namespaces/inkscape"
   xmlns:sodipodi="http://sodipodi.sourceforge.net/DTD/sodipodi-0.dtd"
   xmlns="http://www.w3.org/2000/svg"
   xmlns:svg="http://www.w3.org/2000/svg">
  <defs
     id="defs1" />
  <sodipodi:namedview
     id="namedview1"
     pagecolor="#ffffff"
     bordercolor="#000000"
     borderopacity="0.25"
     inkscape:showpageshadow="2"
     inkscape:pageopacity="0.0"
     inkscape:pagecheckerboard="0"
     inkscape:deskcolor="#d1d1d1" />
  <path
     style="color:#000000;fill:#3574f0;-inkscape-stroke:none"
     d="M 8,1 C 4.1399329,1 1,4.1399329 1,8 c 0,3.860067 3.1399329,7 7,7 3.860067,0 7,-3.139933 7,-7 C 15,4.1399329 11.860067,1 8,1 Z m 0,1 c 3.319627,0 6,2.6803725 6,6 0,3.319627 -2.680373,6 -6,6 C 4.6803725,14 2,11.319627 2,8 2,4.6803725 4.6803725,2 8,2 Z"
     id="circle1" />
  <path
     d="M8.13295 11.5C9.61223 11.5 10.8836 10.6105 11.2075 9.33909H10.2213C9.90229 10.0739 9.11914 10.6057 8.13295 10.6057C6.77936 10.6057 5.80284 9.51796 5.80284 8C5.80284 6.48204 6.77936 5.39434 8.13295 5.39434C9.11914 5.39434 9.90229 5.92611 10.2213 6.66091H11.2075C10.8836 5.3895 9.61223 4.5 8.13295 4.5C6.21859 4.5 4.79248 5.99378 4.79248 8C4.79248 10.0062 6.21859 11.5 8.13295 11.5Z"
     fill="#3574F0"
     id="path1" />
</svg>
