<?xml version="1.0" encoding="UTF-8" standalone="no"?>
<svg
   width="16"
   height="16"
   viewBox="0 0 16 16"
   fill="none"
   version="1.1"
   id="svg1"
   sodipodi:docname="codeAssistantMacro.svg"
   xmlns:inkscape="http://www.inkscape.org/namespaces/inkscape"
   xmlns:sodipodi="http://sodipodi.sourceforge.net/DTD/sodipodi-0.dtd"
   xmlns="http://www.w3.org/2000/svg"
   xmlns:svg="http://www.w3.org/2000/svg">
  <defs
     id="defs1" />
  <sodipodi:namedview
     id="namedview1"
     pagecolor="#ffffff"
     bordercolor="#000000"
     borderopacity="0.25"
     inkscape:showpageshadow="2"
     inkscape:pageopacity="0.0"
     inkscape:pagecheckerboard="0"
     inkscape:deskcolor="#d1d1d1" />
  <path
     style="color:#000000;fill:#5fb865;-inkscape-stroke:none"
     d="M 4,2 C 2.9006497,2 2,2.9006497 2,4 v 8 c 0,1.09935 0.9006497,2 2,2 h 8 c 1.09935,0 2,-0.90065 2,-2 V 4 C 14,2.9006497 13.09935,2 12,2 Z m 0,1 h 8 c 0.562648,0 1,0.4373519 1,1 v 8 c 0,0.562648 -0.437352,1 -1,1 H 4 C 3.4373519,13 3,12.562648 3,12 V 4 C 3,3.4373519 3.4373519,3 4,3 Z"
     id="rect1" />
  <path
     d="M6.99074 4.5H8.01574L6.51574 11.5H5.49074L6.99074 4.5ZM9.48574 4.5H10.5107L9.01074 11.5H7.98574L9.48574 4.5ZM10.6107 8.81V9.73L4.88574 9.74V8.82L10.6107 8.81ZM11.1107 6.265V7.185L5.38574 7.195V6.275L11.1107 6.265Z"
     fill="#5FB865"
     id="path1" />
</svg>
