<?xml version="1.0" encoding="UTF-8" standalone="no"?>
<svg
   width="16"
   height="16"
   viewBox="0 0 16 16"
   fill="none"
   version="1.1"
   id="svg1"
   sodipodi:docname="codeAssistantNamespace.svg"
   xmlns:inkscape="http://www.inkscape.org/namespaces/inkscape"
   xmlns:sodipodi="http://sodipodi.sourceforge.net/DTD/sodipodi-0.dtd"
   xmlns="http://www.w3.org/2000/svg"
   xmlns:svg="http://www.w3.org/2000/svg">
  <defs
     id="defs1" />
  <sodipodi:namedview
     id="namedview1"
     pagecolor="#ffffff"
     bordercolor="#000000"
     borderopacity="0.25"
     inkscape:showpageshadow="2"
     inkscape:pageopacity="0.0"
     inkscape:pagecheckerboard="0"
     inkscape:deskcolor="#d1d1d1" />
  <path
     style="color:#000000;fill:#3574f0;-inkscape-stroke:none"
     d="M 4,2 C 2.9006497,2 2,2.9006497 2,4 v 8 c 0,1.09935 0.9006497,2 2,2 h 8 c 1.09935,0 2,-0.90065 2,-2 V 4 C 14,2.9006497 13.09935,2 12,2 Z m 0,1 h 8 c 0.562648,0 1,0.4373519 1,1 v 8 c 0,0.562648 -0.437352,1 -1,1 H 4 C 3.4373519,13 3,12.562648 3,12 V 4 C 3,3.4373519 3.4373519,3 4,3 Z"
     id="rect1" />
  <path
     d="M5.20581 4.5H6.25081L9.81581 9.935V4.5H10.7958V11.5H9.74581L6.18581 6.065V11.5H5.20581V4.5Z"
     fill="#3574F0"
     id="path1" />
</svg>
