<?xml version="1.0" encoding="UTF-8" standalone="no"?>
<!-- Copyright 2000-2023 JetBrains s.r.o. and contributors. Use of this source code is governed by the Apache 2.0 license. -->

<svg
   width="16"
   height="16"
   viewBox="0 0 16 16"
   fill="none"
   version="1.1"
   id="svg1"
   sodipodi:docname="method.svg"
   xmlns:inkscape="http://www.inkscape.org/namespaces/inkscape"
   xmlns:sodipodi="http://sodipodi.sourceforge.net/DTD/sodipodi-0.dtd"
   xmlns="http://www.w3.org/2000/svg"
   xmlns:svg="http://www.w3.org/2000/svg">
  <defs
     id="defs1" />
  <sodipodi:namedview
     id="namedview1"
     pagecolor="#ffffff"
     bordercolor="#000000"
     borderopacity="0.25"
     inkscape:showpageshadow="2"
     inkscape:pageopacity="0.0"
     inkscape:pagecheckerboard="0"
     inkscape:deskcolor="#d1d1d1" />
  <path
     style="color:#000000;fill:#db3b4b;-inkscape-stroke:none"
     d="M 8,1 C 4.1399329,1 1,4.1399329 1,8 c 0,3.860067 3.1399329,7 7,7 3.860067,0 7,-3.139933 7,-7 C 15,4.1399329 11.860067,1 8,1 Z m 0,1 c 3.319627,0 6,2.6803725 6,6 0,3.319627 -2.680373,6 -6,6 C 4.6803725,14 2,11.319627 2,8 2,4.6803725 4.6803725,2 8,2 Z"
     id="circle1" />
  <path
     d="M10.0657 5.24573C9.25361 5.24573 8.636 5.6473 8.29593 6.31537C8.00368 5.64257 7.40552 5.24573 6.6071 5.24573C5.84915 5.24573 5.28147 5.60946 4.96189 6.24862V5.37188H4V10.7543H4.99869V7.59001C4.99869 6.68068 5.5138 6.10775 6.32852 6.10775C7.0749 6.10775 7.50591 6.61761 7.50591 7.43758V10.7543H8.49409V7.59001C8.49409 6.68068 9.01971 6.10775 9.82392 6.10775C10.5756 6.10775 11.0013 6.61761 11.0013 7.43758V10.7543H12V7.35874C12 6.07096 11.2168 5.24573 10.0657 5.24573Z"
     fill="#DB3B4B"
     id="path1" />
</svg>
