<?xml version="1.0" encoding="UTF-8" standalone="no"?>
<svg
   width="16"
   height="16"
   viewBox="0 0 16 16"
   fill="none"
   version="1.1"
   id="svg2"
   sodipodi:docname="property.svg"
   xmlns:inkscape="http://www.inkscape.org/namespaces/inkscape"
   xmlns:sodipodi="http://sodipodi.sourceforge.net/DTD/sodipodi-0.dtd"
   xmlns="http://www.w3.org/2000/svg"
   xmlns:svg="http://www.w3.org/2000/svg">
  <defs
     id="defs2" />
  <sodipodi:namedview
     id="namedview2"
     pagecolor="#ffffff"
     bordercolor="#000000"
     borderopacity="0.25"
     inkscape:showpageshadow="2"
     inkscape:pageopacity="0.0"
     inkscape:pagecheckerboard="0"
     inkscape:deskcolor="#d1d1d1" />
  <path
     fill-rule="evenodd"
     clip-rule="evenodd"
     d="M7.29308 1.29314L1.29338 7.29284C0.902857 7.68336 0.902858 8.31653 1.29338 8.70705L7.29308 14.7067C7.68361 15.0973 8.31677 15.0973 8.70729 14.7067L14.707 8.70705C15.0975 8.31652 15.0975 7.68336 14.707 7.29284L8.70729 1.29314C8.31677 0.902613 7.6836 0.902613 7.29308 1.29314ZM6.58597 0.586031L0.586274 6.58573C-0.194774 7.36678 -0.194773 8.63311 0.586275 9.41416L6.58597 15.4139C7.36702 16.1949 8.63335 16.1949 9.4144 15.4139L15.4141 9.41416C16.1951 8.63311 16.1951 7.36678 15.4141 6.58573L9.4144 0.58603C8.63335 -0.195019 7.36702 -0.195018 6.58597 0.586031Z"
     fill="#834DF0"
     id="path4" />
  <path
     d="M8.57081 5C7.72702 5 7.06335 5.37098 6.68265 5.99832V5.12281H5.7002V12H6.70312V9.52032C7.08689 10.1272 7.74186 10.4854 8.57081 10.4854C10.0291 10.4854 11.0474 9.36988 11.0474 7.74269C11.0474 6.1155 10.0291 5 8.57081 5ZM8.36101 9.5848C7.38367 9.5848 6.70312 8.8326 6.70312 7.74269C6.70312 6.65278 7.38367 5.90058 8.36101 5.90058C9.33324 5.90058 10.0036 6.65278 10.0036 7.74269C10.0036 8.8326 9.33324 9.5848 8.36101 9.5848Z"
     fill="#834DF0"
     id="path3" />
</svg>
