<?xml version="1.0" encoding="UTF-8" standalone="no"?>
<svg
   width="16"
   height="16"
   viewBox="0 0 16 16"
   fill="none"
   version="1.1"
   id="svg2"
   sodipodi:docname="template.svg"
   xmlns:inkscape="http://www.inkscape.org/namespaces/inkscape"
   xmlns:sodipodi="http://sodipodi.sourceforge.net/DTD/sodipodi-0.dtd"
   xmlns="http://www.w3.org/2000/svg"
   xmlns:svg="http://www.w3.org/2000/svg">
  <defs
     id="defs2" />
  <sodipodi:namedview
     id="namedview2"
     pagecolor="#ffffff"
     bordercolor="#000000"
     borderopacity="0.25"
     inkscape:showpageshadow="2"
     inkscape:pageopacity="0.0"
     inkscape:pagecheckerboard="0"
     inkscape:deskcolor="#d1d1d1" />
  <path
     style="color:#000000;fill:#6c707e;stroke-linecap:round;-inkscape-stroke:none"
     d="M 3.5,13 A 0.5,0.5 0 0 0 3,13.5 0.5,0.5 0 0 0 3.5,14 h 9 A 0.5,0.5 0 0 0 13,13.5 0.5,0.5 0 0 0 12.5,13 Z"
     id="path1" />
  <path
     style="color:#000000;fill:#6c707e;stroke-linecap:round;stroke-linejoin:round;-inkscape-stroke:none"
     d="M 6.9882812,2 C 5.6726649,2 4.7049758,3.2838347 5.0664062,4.5488281 L 6.3378906,9 H 2 C 1.4536353,9 1,9.4536353 1,10 v 1 c 0,0.546364 0.453587,1 1,1 h 12 c 0.546412,0 1,-0.453588 1,-1 V 10 C 15,9.453587 14.546364,9 14,9 H 9.6621094 L 10.933594,4.5488281 C 11.295051,3.2838337 10.327355,2 9.0117188,2 Z m 0,1 H 9.0117188 C 9.68928,3 10.158799,3.623947 9.9726563,4.2753906 L 8.5195313,9.3632813 A 0.50005,0.50005 0 0 0 9,10 h 5 v 1 H 2 V 10 H 7 A 0.50005,0.50005 0 0 0 7.4804687,9.3632813 L 6.0273437,4.2753906 C 5.8412148,3.6239459 6.3107596,3 6.9882812,3 Z"
     id="path2" />
</svg>
