<?xml version="1.0" encoding="UTF-8" standalone="no"?>
<!-- Copyright 2000-2023 JetBrains s.r.o. and contributors. Use of this source code is governed by the Apache 2.0 license. -->

<svg
   width="16"
   height="16"
   viewBox="0 0 16 16"
   fill="none"
   version="1.1"
   id="svg3"
   sodipodi:docname="value.svg"
   xmlns:inkscape="http://www.inkscape.org/namespaces/inkscape"
   xmlns:sodipodi="http://sodipodi.sourceforge.net/DTD/sodipodi-0.dtd"
   xmlns="http://www.w3.org/2000/svg"
   xmlns:svg="http://www.w3.org/2000/svg">
  <defs
     id="defs3" />
  <sodipodi:namedview
     id="namedview3"
     pagecolor="#ffffff"
     bordercolor="#000000"
     borderopacity="0.25"
     inkscape:showpageshadow="2"
     inkscape:pageopacity="0.0"
     inkscape:pagecheckerboard="0"
     inkscape:deskcolor="#d1d1d1" />
  <path
     style="color:#000000;fill:#c27d04;-inkscape-stroke:none"
     d="m 4,11 c -0.546413,0 -1,0.453636 -1,1 v 2 c 0,0.546364 0.453587,1 1,1 h 8 c 0.546412,0 1,-0.453588 1,-1 v -2 c 0,-0.546412 -0.453588,-1 -1,-1 z m 0,1 h 8 v 2 H 4 Z"
     id="path1" />
  <path
     style="color:#000000;fill:#c27d04;-inkscape-stroke:none"
     d="M 4,6 C 3.4536353,6 3,6.4536353 3,7 v 2 c 0,0.5463647 0.4536353,1 1,1 h 8 c 0.546364,0 1,-0.453587 1,-1 V 7 C 13,6.453587 12.546364,6 12,6 Z m 0,1 h 8 V 9 H 4 Z"
     id="path2" />
  <path
     style="color:#000000;fill:#c27d04;-inkscape-stroke:none"
     d="M 4,1 C 3.4536353,1 3,1.4536353 3,2 v 2 c 0,0.5463647 0.4536353,1 1,1 h 8 c 0.546364,0 1,-0.453587 1,-1 V 2 C 13,1.453587 12.546364,1 12,1 Z m 0,1 h 8 V 4 H 4 Z"
     id="path3" />
</svg>
