<?xml version="1.0" encoding="UTF-8" standalone="no"?>
<!-- Copyright 2000-2023 JetBrains s.r.o. and contributors. Use of this source code is governed by the Apache 2.0 license. -->

<svg
   width="16"
   height="16"
   viewBox="0 0 16 16"
   fill="none"
   version="1.1"
   id="svg1"
   sodipodi:docname="variable.svg"
   xmlns:inkscape="http://www.inkscape.org/namespaces/inkscape"
   xmlns:sodipodi="http://sodipodi.sourceforge.net/DTD/sodipodi-0.dtd"
   xmlns="http://www.w3.org/2000/svg"
   xmlns:svg="http://www.w3.org/2000/svg">
  <defs
     id="defs1" />
  <sodipodi:namedview
     id="namedview1"
     pagecolor="#ffffff"
     bordercolor="#000000"
     borderopacity="0.25"
     inkscape:showpageshadow="2"
     inkscape:pageopacity="0.0"
     inkscape:pagecheckerboard="0"
     inkscape:deskcolor="#d1d1d1" />
  <path
     style="color:#000000;fill:#e66d17;-inkscape-stroke:none"
     d="M 8,1 C 4.1399329,1 1,4.1399329 1,8 c 0,3.860067 3.1399329,7 7,7 3.860067,0 7,-3.139933 7,-7 C 15,4.1399329 11.860067,1 8,1 Z m 0,1 c 3.319627,0 6,2.6803725 6,6 0,3.319627 -2.680373,6 -6,6 C 4.6803725,14 2,11.319627 2,8 2,4.6803725 4.6803725,2 8,2 Z"
     id="circle1" />
  <path
     d="M7.5459 11.4H8.46582L10.8213 5.40002H9.79004L8.04395 10.1051L6.23926 5.40002H5.17871L7.5459 11.4Z"
     fill="#E66D17"
     id="path1" />
</svg>
